<?xml version="1.0" standalone="no"?>
<!DOCTYPE svg PUBLIC "-//W3C//DTD SVG 20010904//EN"
 "http://www.w3.org/TR/2001/REC-SVG-20010904/DTD/svg10.dtd">
<svg version="1.0" xmlns="http://www.w3.org/2000/svg"
 width="200.000000pt" height="203.000000pt" viewBox="0 0 200.000000 203.000000"
 preserveAspectRatio="xMidYMid meet">

<g transform="translate(0.000000,203.000000) scale(0.100000,-0.100000)"
fill="#000000" stroke="none">
<path d="M855 1864 c-11 -2 -45 -9 -75 -15 -30 -6 -86 -23 -123 -37 l-69 -25
4 -291 c5 -311 9 -339 63 -446 49 -95 168 -197 301 -256 l56 -25 63 30 c143
66 250 162 299 264 48 102 56 167 56 458 l0 265 -52 22 c-108 43 -168 54 -338
57 -91 2 -174 2 -185 -1z m295 -44 c47 -6 120 -22 164 -37 l79 -25 -5 -189
c-2 -104 -6 -191 -9 -193 -9 -8 -136 16 -186 35 l-52 21 -57 -22 c-64 -23
-110 -21 -160 9 -28 17 -31 17 -84 -5 -30 -12 -80 -25 -110 -29 -30 -3 -63 -9
-72 -11 -17 -5 -18 9 -18 190 l0 195 53 19 c122 46 294 62 457 42z m-335 -515
c22 -14 51 -25 65 -25 14 0 43 11 65 25 51 31 75 31 133 0 26 -14 55 -25 65
-25 10 0 40 11 67 25 61 31 80 31 130 3 34 -19 40 -28 40 -55 0 -18 -2 -33 -5
-33 -3 0 -22 9 -42 20 -49 26 -63 25 -123 -5 -61 -31 -74 -31 -132 0 -26 14
-55 25 -65 25 -10 0 -39 -11 -65 -25 -26 -14 -56 -25 -68 -25 -12 0 -42 11
-68 25 -57 30 -77 31 -120 5 -44 -27 -52 -25 -52 13 1 27 6 35 43 54 54 28 83
28 132 -2z m-36 -166 l25 -20 -27 -26 c-22 -22 -28 -24 -41 -13 -14 10 -16 9
-16 -8 0 -27 27 -49 42 -34 21 21 28 13 28 -33 0 -25 -4 -45 -8 -45 -10 0 -63
64 -80 97 -19 34 -14 60 14 82 32 25 33 25 63 0z m130 0 l24 -20 -24 -25 c-12
-13 -29 -22 -36 -20 -8 3 -13 -2 -13 -14 0 -24 18 -36 33 -21 17 17 27 13 27
-12 0 -33 -23 -62 -44 -54 -19 8 -23 -22 -4 -41 9 -9 16 -8 30 5 17 15 18 14
18 -25 0 -23 -3 -42 -6 -42 -4 0 -26 12 -50 28 l-44 27 0 95 c0 91 1 95 28
117 33 27 31 27 61 2z m132 2 l24 -19 -25 -26 c-13 -15 -30 -24 -37 -22 -16 7
-17 -16 -1 -32 9 -9 16 -8 30 5 17 15 18 14 18 -14 0 -37 -30 -69 -48 -51 -9
9 -12 7 -12 -8 0 -33 21 -47 42 -27 17 15 18 14 18 -14 0 -34 -22 -58 -45 -49
-18 6 -20 -15 -3 -32 9 -9 16 -8 30 5 17 15 18 15 18 -4 0 -28 -25 -36 -67
-22 l-33 11 0 134 c0 135 0 135 28 159 33 30 34 30 63 6z m137 -4 l22 -23 -25
-24 c-20 -19 -27 -21 -40 -10 -13 10 -15 9 -15 -8 0 -29 26 -48 45 -32 13 11
15 8 15 -18 0 -33 -22 -57 -45 -48 -18 7 -21 -24 -3 -42 9 -9 16 -8 30 5 17
15 18 15 18 -5 0 -21 -61 -72 -87 -72 -10 0 -13 30 -13 122 0 119 1 123 27
150 33 34 43 35 71 5z m130 0 l22 -23 -25 -24 c-20 -19 -27 -21 -40 -10 -13
10 -15 9 -15 -8 0 -29 26 -48 45 -32 36 30 21 -1 -25 -51 l-49 -54 -1 89 c0
79 3 93 22 113 27 29 39 29 66 0z"/>
<path d="M898 1766 c-45 -7 -58 -13 -58 -27 0 -9 -4 -19 -10 -21 -5 -1 -12
-34 -16 -72 l-7 -69 54 8 c69 11 228 12 300 1 l55 -8 -7 68 c-4 38 -12 70 -18
72 -6 2 -11 12 -11 21 0 14 -11 20 -47 26 -72 11 -171 12 -235 1z m100 -72 l3
-61 -72 -7 c-40 -3 -73 -5 -75 -3 -2 1 0 28 3 58 l6 56 46 10 c82 19 86 16 89
-53z m123 51 c33 -6 37 -11 43 -43 3 -21 6 -48 6 -61 0 -23 -2 -23 -52 -16
-29 4 -63 7 -75 6 -21 -1 -23 3 -23 58 0 62 8 73 45 66 11 -2 36 -7 56 -10z"/>
<path d="M340 560 c0 -65 61 -81 74 -18 9 46 7 58 -9 58 -11 0 -15 -11 -15
-41 0 -52 -24 -48 -28 4 -4 50 -22 47 -22 -3z"/>
<path d="M470 550 c0 -27 5 -50 10 -50 6 0 10 12 10 28 l0 27 24 -30 24 -30 3
53 c3 37 0 52 -8 52 -7 0 -13 -10 -13 -22 l0 -22 -16 22 c-24 34 -34 26 -34
-28z"/>
<path d="M600 550 c0 -27 5 -50 10 -50 6 0 10 23 10 50 0 28 -4 50 -10 50 -5
0 -10 -22 -10 -50z"/>
<path d="M670 597 c0 -18 34 -96 40 -92 14 9 40 95 28 95 -5 0 -12 -9 -15 -20
-3 -11 -9 -20 -13 -20 -4 0 -10 9 -13 20 -3 11 -10 20 -16 20 -6 0 -11 -1 -11
-3z"/>
<path d="M800 550 c0 -49 1 -50 30 -50 17 0 30 5 30 10 0 6 -9 10 -20 10 -27
0 -25 28 3 33 l22 4 -22 2 c-13 0 -23 7 -23 15 0 8 10 17 23 19 16 3 13 5 -10
6 l-33 1 0 -50z"/>
<path d="M910 550 c0 -27 5 -50 10 -50 6 0 10 9 10 20 0 26 14 25 33 -2 18
-27 33 -18 18 10 -7 12 -7 22 0 29 19 19 -2 43 -37 43 l-34 0 0 -50z m52 18
c-12 -12 -35 -1 -27 12 3 5 13 6 21 3 10 -4 12 -9 6 -15z"/>
<path d="M1040 576 c0 -15 7 -26 20 -29 11 -3 20 -11 20 -17 0 -7 -8 -10 -20
-7 -26 7 -36 -10 -12 -18 29 -9 52 5 52 31 0 17 -6 24 -20 24 -12 0 -20 7 -20
16 0 10 6 14 15 11 8 -4 17 -2 20 3 4 6 -7 10 -24 10 -26 0 -31 -4 -31 -24z"/>
<path d="M1152 553 c2 -27 8 -48 13 -48 6 0 11 21 13 48 3 38 0 47 -13 47 -13
0 -16 -9 -13 -47z"/>
<path d="M1233 593 c12 -3 17 -15 17 -43 0 -21 5 -42 10 -45 6 -4 10 10 10 34
0 28 5 43 18 50 13 8 7 10 -28 10 -25 -1 -37 -3 -27 -6z"/>
<path d="M1355 570 c8 -16 15 -38 15 -50 0 -11 5 -20 10 -20 6 0 10 9 10 20 0
12 7 34 15 50 14 27 14 30 0 30 -8 0 -15 -8 -15 -17 -1 -17 -1 -17 -14 0 -23
30 -38 21 -21 -13z"/>
<path d="M1517 593 c-16 -15 -7 -72 12 -83 39 -20 69 15 57 66 -5 18 -13 24
-35 24 -15 0 -31 -3 -34 -7z m47 -19 c9 -23 -3 -56 -17 -51 -22 7 -21 67 2 67
5 0 12 -7 15 -16z"/>
<path d="M1640 549 c0 -31 4 -48 10 -44 6 3 10 12 10 19 0 8 10 17 23 21 l22
8 -22 4 c-13 2 -23 11 -23 18 0 7 10 16 23 18 16 3 13 5 -10 6 l-33 1 0 -51z"/>
<path d="M554 434 c12 -11 16 -36 16 -94 0 -58 -4 -83 -16 -94 -14 -15 -8 -16
70 -16 l86 0 0 27 0 27 -16 -22 c-12 -18 -24 -22 -52 -20 l-37 3 -3 90 c-2 76
0 92 14 102 15 11 11 13 -30 13 -43 0 -46 -1 -32 -16z"/>
<path d="M743 439 c14 -8 17 -25 17 -99 0 -74 -3 -91 -17 -99 -14 -8 -1 -10
50 -11 87 0 107 10 107 55 0 28 -5 37 -31 50 -17 9 -38 14 -47 12 -13 -3 -10
-7 10 -15 54 -22 44 -96 -11 -90 -26 3 -26 4 -28 101 -2 87 -1 97 15 97 34 0
55 -24 50 -58 -5 -37 5 -41 25 -11 19 27 10 58 -20 70 -35 13 -144 12 -120 -2z"/>
<path d="M948 443 c8 -3 12 -34 12 -103 0 -69 -4 -100 -12 -103 -7 -3 24 -6
70 -6 l82 -1 -1 28 c-1 16 -3 20 -6 10 -5 -19 -40 -32 -70 -26 -14 2 -19 14
-21 51 -3 41 -1 47 17 47 11 0 27 -7 35 -16 15 -14 16 -12 16 17 0 26 -3 30
-12 21 -7 -7 -22 -12 -35 -12 -21 0 -23 5 -23 45 0 43 1 45 29 45 20 0 35 -8
45 -22 l16 -22 0 27 0 27 -77 -1 c-43 0 -72 -3 -65 -6z"/>
<path d="M1147 442 c18 -11 20 -192 2 -203 -9 -6 2 -8 31 -8 25 0 39 3 33 6
-8 3 -13 23 -13 49 0 55 21 59 44 9 22 -45 43 -65 69 -65 13 0 17 3 11 8 -6 4
-23 27 -37 52 -26 45 -26 46 -7 58 13 8 20 23 20 42 0 42 -31 60 -105 60 -33
0 -55 -4 -48 -8z m113 -34 c19 -35 5 -62 -34 -66 -25 -3 -26 -2 -26 48 0 47 2
51 22 48 12 -2 29 -15 38 -30z"/>
<path d="M1331 418 c1 -18 3 -25 6 -15 4 16 40 37 64 37 15 0 11 -197 -3 -203
-7 -3 7 -5 32 -5 25 0 39 2 33 5 -15 6 -18 188 -4 197 15 10 59 -12 64 -31 3
-10 5 -3 6 15 l1 32 -100 0 -100 0 1 -32z"/>
<path d="M378 390 c-14 -31 -31 -73 -37 -93 -7 -20 -22 -44 -34 -52 -21 -14
-20 -15 18 -15 25 0 35 3 27 9 -9 5 -11 17 -6 34 5 24 11 27 45 27 33 0 41 -4
51 -26 10 -21 9 -27 -3 -35 -9 -6 1 -9 33 -9 l47 0 -24 26 c-14 15 -25 32 -26
38 0 6 -15 43 -33 81 l-33 70 -25 -55z m30 -35 c17 -37 15 -45 -11 -45 -33 0
-37 7 -24 41 14 36 20 36 35 4z"/>
<path d="M1576 347 c-21 -51 -45 -98 -54 -105 -13 -10 -10 -12 24 -11 21 1 31
3 22 6 -21 5 -21 4 -8 37 8 22 16 26 48 26 32 0 41 -5 50 -25 9 -20 8 -26 -6
-34 -13 -8 -5 -10 32 -11 42 0 47 2 34 13 -9 6 -33 51 -53 100 -21 48 -41 89
-45 92 -4 2 -24 -37 -44 -88z m48 4 c17 -32 13 -41 -21 -41 -26 0 -28 7 -13
44 12 33 16 33 34 -3z"/>
</g>
</svg>
